<svg width="640" height="160" viewBox="0 0 640 160" fill="none" xmlns="http://www.w3.org/2000/svg">
  <rect x="8" y="8" width="624" height="144" rx="28" fill="#06131A"/>
  <path d="M58 98c0-18.778 15.222-34 34-34 9.9 0 18.8 4.22 24.9 11.0 6.1-6.78 15-11.0 24.9-11.0 18.778 0 34 15.222 34 34 0 21.0-17.0 38.0-38.0 38.0h-41.8C75.0 136 58 119 58 98Z" fill="#0EA5E9"/>
  <path d="M86 94c0-7.18 5.82-13 13-13s13 5.82 13 13-5.82 13-13 13-13-5.82-13-13Z" fill="#FFFFFF" opacity="0.9"/>
  <path d="M126 94c0-7.18 5.82-13 13-13s13 5.82 13 13-5.82 13-13 13-13-5.82-13-13Z" fill="#FFFFFF" opacity="0.9"/>
  <text x="220" y="92" fill="#FFFFFF" font-family="ui-sans-serif, system-ui, -apple-system, Segoe UI, Roboto, Helvetica, Arial" font-size="46" font-weight="800" letter-spacing="-0.02em">KinFrame</text>
  <text x="222" y="122" fill="#B7E7FB" font-family="ui-sans-serif, system-ui, -apple-system, Segoe UI, Roboto, Helvetica, Arial" font-size="16" font-weight="700">Placeholder logo</text>
</svg>

