<svg width="640" height="160" viewBox="0 0 640 160" fill="none" xmlns="http://www.w3.org/2000/svg">
  <rect x="8" y="8" width="624" height="144" rx="28" fill="#0B0718"/>
  <path d="M64 104V60c0-6.627 5.373-12 12-12h34c6.627 0 12 5.373 12 12v44c0 6.627-5.373 12-12 12H76c-6.627 0-12-5.373-12-12Z" fill="#8B5CF6"/>
  <path d="M80 70h26c2.209 0 4 1.791 4 4v2c0 2.209-1.791 4-4 4H80c-2.209 0-4-1.791-4-4v-2c0-2.209 1.791-4 4-4Z" fill="#FFFFFF" opacity="0.9"/>
  <path d="M80 90h18c2.209 0 4 1.791 4 4v2c0 2.209-1.791 4-4 4H80c-2.209 0-4-1.791-4-4v-2c0-2.209 1.791-4 4-4Z" fill="#FFFFFF" opacity="0.85"/>
  <text x="150" y="92" fill="#FFFFFF" font-family="ui-sans-serif, system-ui, -apple-system, Segoe UI, Roboto, Helvetica, Arial" font-size="44" font-weight="800" letter-spacing="-0.02em">RightClickFit</text>
  <text x="152" y="122" fill="#D6C8FF" font-family="ui-sans-serif, system-ui, -apple-system, Segoe UI, Roboto, Helvetica, Arial" font-size="16" font-weight="700">Placeholder logo</text>
</svg>

